Patient4_TMGait_0pt7_02_right_48_GRF.mot
version=1
nRows=39
nColumns=19
inDegrees=no
endheader
time	F1x	F1y	F1z	M1x	M1y	M1z	F2x	F2y	F2z	M2x	M2y	M2z	EC1x	EC1y	EC1z	EC2x	EC2y	EC2z
54.33	21.2537	731.816	75.2353	-258.4458	-71.8995	753.3135	9.3567	-22.6616	-18.6077	-0.26093	5.991	-28.6209	-0.0592	0.0182	-0.0073	-0.0462	0.0165	0.9585
54.3419	11.5717	732.0929	73.4258	-258.7781	-72.5132	745.9929	6.196	-13.7889	-12.5672	0.37228	4.0624	-17.7241	-0.0592	0.0182	-0.0073	-0.0462	0.0165	0.9585
54.3537	3.9005	733.3887	71.7631	-259.4705	-72.5632	739.5336	3.5247	-6.278	-7.451	0.90848	2.4601	-8.4876	-0.0592	0.0182	-0.0073	-0.0462	0.0165	0.9585
54.3656	-1.3147	735.6175	70.3779	-260.4908	-72.0426	734.1838	1.464	-0.52561	-3.5435	1.3276	1.2558	-1.4002	-0.0592	0.0182	-0.0073	-0.0462	0.0165	0.9585
54.3774	-4.1839	738.516	69.3207	-261.7401	-71.0463	729.8194	0.044467	3.4935	-0.84501	1.6311	0.44025	3.5462	-0.0592	0.0182	-0.0073	-0.0462	0.0165	0.9585
54.3893	-5.0809	741.6965	68.5299	-263.0802	-69.6445	726.1	-0.86809	6.0374	0.83413	1.8353	-0.05014	6.6818	-0.0592	0.0182	-0.0073	-0.0462	0.0165	0.9585
54.4011	-4.4874	744.7309	67.9443	-264.3527	-67.9426	722.5744	-1.3762	7.397	1.7158	1.945	-0.28297	8.3584	-0.0592	0.0182	-0.0073	-0.0462	0.0165	0.9585
54.413	-2.87	747.1642	67.4911	-265.3882	-66.0274	718.7342	-1.6252	7.8884	2.0503	1.9681	-0.33854	8.9828	-0.0592	0.0182	-0.0073	-0.0462	0.0165	0.9585
54.4249	-0.57023	748.5797	67.1061	-266.0319	-63.9627	714.1363	-1.709	7.6792	2.0313	1.8795	-0.27497	8.774	-0.0592	0.0182	-0.0073	-0.0462	0.0165	0.9585
54.4367	2.1608	748.7046	66.7697	-266.1781	-61.8179	708.4654	-1.7164	6.8946	1.8353	1.653	-0.15941	7.9073	-0.0592	0.0182	-0.0073	-0.0462	0.0165	0.9585
54.4486	5.1882	747.4515	66.4582	-265.7894	-59.6245	701.5987	-1.6823	5.5263	1.5637	1.2397	-0.025316	6.382	-0.0592	0.0182	-0.0073	-0.0462	0.0165	0.9585
54.4604	8.462	744.9579	66.2082	-264.9057	-57.4408	693.6475	-1.6436	3.5363	1.3022	0.59652	0.088395	4.1653	-0.0592	0.0182	-0.0073	-0.0462	0.0165	0.9585
54.4723	11.9619	741.5516	66.0398	-263.6344	-55.2985	684.9003	-1.5742	0.87957	1.0892	-0.30912	0.15327	1.1911	-0.0592	0.0182	-0.0073	-0.0462	0.0165	0.9585
54.4841	15.7027	737.7175	66.0305	-262.13	-53.2633	675.8175	-1.4477	-2.4109	0.96599	-1.4692	0.12243	-2.5043	-0.0592	0.0182	-0.0073	-0.0462	0.0165	0.9585
54.496	19.7121	734.0049	66.2209	-260.5681	-51.3591	666.9295	-1.1887	-6.1301	0.94585	-2.8059	-0.045428	-6.694	-0.0592	0.0182	-0.0073	-0.0462	0.0165	0.9585
54.5079	23.9472	730.8365	66.6938	-259.0794	-49.675	658.679	-0.70797	-9.7829	1.042	-4.1268	-0.40295	-10.8212	-0.0592	0.0182	-0.0073	-0.0462	0.0165	0.9585
54.5197	28.3218	728.3713	67.4758	-257.7043	-48.2685	651.2942	0.10139	-12.457	1.2655	-5.0796	-1.0054	-13.8585	-0.0592	0.0182	-0.0073	-0.0462	0.0165	0.9585
54.5316	32.6696	726.3477	68.5862	-256.3414	-47.2193	644.6582	1.3305	-12.6857	1.6167	-5.1031	-1.887	-14.1557	-0.0592	0.0182	-0.0073	-0.0462	0.0165	0.9585
54.5434	36.7744	724.0956	69.9574	-254.7596	-46.5487	638.2849	3.0297	-8.3584	2.0913	-3.3936	-3.0529	-9.3415	-0.0592	0.0182	-0.0073	-0.0462	0.0165	0.9585
54.5553	40.4278	720.6216	71.4692	-252.628	-46.2322	631.4205	5.1632	3.2504	2.6449	1.0858	-4.4276	3.6495	-0.0592	0.0182	-0.0073	-0.0462	0.0165	0.9585
54.5671	43.4571	714.7382	72.9325	-249.5665	-46.1773	623.1037	7.5437	25.3292	3.1963	9.5422	-5.8304	28.398	-0.0592	0.0182	-0.0073	-0.0462	0.0165	0.9585
54.579	45.6945	705.1561	74.1198	-245.1771	-46.252	612.2597	9.7711	61.0463	3.5844	23.1694	-6.9075	68.4511	-0.0592	0.0182	-0.0073	-0.0462	0.0165	0.9585
54.5909	47.0321	690.5376	74.7515	-239.0597	-46.2571	597.7464	11.1047	112.7381	3.5663	42.8369	-7.0903	126.4277	-0.0592	0.0182	-0.0073	-0.0462	0.0165	0.9585
54.6027	47.3872	669.5745	74.4852	-230.8351	-45.9239	578.4007	10.4485	180.5643	2.7794	68.5759	-5.5492	202.4882	-0.0592	0.0182	-0.0073	-0.0462	0.0165	0.9585
54.6146	46.7501	641.0493	72.9638	-220.1632	-44.9453	553.0793	6.292	260.7234	0.75326	98.9048	-1.2253	292.3511	-0.0592	0.0182	-0.0073	-0.0462	0.0165	0.9585
54.6264	45.1636	604.0181	69.8585	-206.7953	-43.0183	520.8491	-2.2286	344.3385	-3.0168	130.3963	6.69	386.0355	-0.0592	0.0182	-0.0073	-0.0462	0.0165	0.9585
54.6383	42.6905	558.0975	65.0318	-190.6552	-40.0031	481.2145	-13.6802	420.094	-9.5908	158.6899	18.6808	470.6851	-0.0592	0.0182	-0.0073	-0.0462	0.0165	0.9585
54.6501	39.3597	503.8642	58.6544	-171.9409	-36.0209	434.5295	-25.9567	482.682	-19.0502	181.701	33.9097	540.0772	-0.0592	0.0182	-0.0073	-0.0462	0.0165	0.9585
54.662	35.1547	442.8879	51.2813	-151.1214	-31.5136	382.0811	-37.2543	533.726	-29.9053	200.0523	50.1462	595.7079	-0.0592	0.0182	-0.0073	-0.0462	0.0165	0.9585
54.6739	30.0887	377.3289	43.6403	-128.8463	-27.0455	325.6969	-46.2499	577.2209	-41.5232	215.2991	66.1202	641.9456	-0.0592	0.0182	-0.0073	-0.0462	0.0165	0.9585
54.6857	24.2004	310.0095	36.2561	-105.9903	-23.0023	267.8147	-52.3393	616.6515	-51.9759	228.8744	79.6084	682.6252	-0.0592	0.0182	-0.0073	-0.0462	0.0165	0.9585
54.6976	17.7237	244.1076	29.4635	-83.5835	-19.5791	211.1548	-55.5603	653.2984	-60.9833	241.3122	90.248	719.3419	-0.0592	0.0182	-0.0073	-0.0462	0.0165	0.9585
54.7094	11.0563	182.9729	23.4022	-62.7427	-16.7584	158.6074	-56.1881	686.9237	-67.8329	252.5709	97.4567	751.9411	-0.0592	0.0182	-0.0073	-0.0462	0.0165	0.9585
54.7213	4.9319	129.4168	18.1227	-44.4373	-14.3532	112.5471	-54.7319	716.5488	-73.3285	262.245	102.2452	779.6247	-0.0592	0.0182	-0.0073	-0.0462	0.0165	0.9585
54.7331	0.0703	85.2325	13.5465	-29.3049	-12.0644	74.5198	-51.6799	740.919	-77.5942	269.867	105.009	801.1985	-0.0592	0.0182	-0.0073	-0.0462	0.0165	0.9585
54.745	-3.0517	50.928	9.576	-17.5464	-9.6653	44.9122	-47.7802	758.8159	-81.2518	274.9719	106.6846	815.6426	-0.0592	0.0182	-0.0073	-0.0462	0.0165	0.9585
54.7569	-4.4842	26.0753	6.1885	-9.0234	-7.1678	23.4066	-43.5839	769.7006	-84.2154	277.4182	107.4485	822.5193	-0.0592	0.0182	-0.0073	-0.0462	0.0165	0.9585
54.7687	-4.5989	9.5601	3.4439	-3.3585	-4.7715	9.0527	-39.5561	774.1038	-86.4563	277.4545	107.4677	822.5756	-0.0592	0.0182	-0.0073	-0.0462	0.0165	0.9585
54.7806	-4.0328	-0.13764	1.4743	-0.024214	-2.8143	0.61056	-35.8105	773.1819	-87.7238	275.6003	106.5684	817.0522	-0.0592	0.0182	-0.0073	-0.0462	0.0165	0.9585
